<svg width="637" height="693" xmlns="http://www.w3.org/2000/svg" xmlns:xlink="http://www.w3.org/1999/xlink" xml:space="preserve" overflow="hidden"><g transform="translate(-941 -551)"><path d="M1231.79 552.192C1244.79 551.158 1258.23 553.863 1270.44 560.77L1451.82 663.378 1452.56 663.898 1344.05 602.512C1311.49 584.094 1270.17 595.557 1251.75 628.113L1023.73 1031.18C1007.62 1059.67 1014.38 1094.87 1038.13 1115.56L1048.6 1122.96 975.727 1081.74C943.171 1063.32 931.709 1022 950.126 989.441L1178.15 586.371C1189.66 566.023 1210.12 553.915 1231.79 552.192Z" fill="#CF231F" fill-rule="evenodd"/><path d="M1336.06 602.618C1344.8 603.625 1353.48 606.362 1361.62 610.966L1543 713.575C1575.56 731.993 1587.02 773.315 1568.6 805.872L1403.74 1097.31 1306.28 1097.31 1306.28 1026.45 1414.34 1026.45 1414.34 963.027 1306.28 963.027 1306.28 901.024 1433.19 901.024 1433.19 837.604 1229.11 837.604 1229.11 893.229 1229.11 893.229 1229.11 963.027 1229.11 1026.45 1229.11 1097.31 1229.11 1097.31 1229.11 1160.73 1367.86 1160.73 1340.58 1208.94C1322.17 1241.5 1280.84 1252.96 1248.29 1234.54L1066.91 1131.93C1034.35 1113.52 1022.89 1072.19 1041.31 1039.64L1269.33 636.567C1283.14 612.15 1309.84 599.598 1336.06 602.618Z" fill="#CF231F" fill-rule="evenodd"/></g></svg>